# xmcd
#
# Track frame offsets:
#	150
#	16037
#	36757
#	52130
#	66977
#	90440
#	108745
#	129179
#	147334
#	168923
#	188135
#	206349
#	231324
#
# Disc length: 3320 seconds
# Revision: 1
# Processed by: cddbd v1.5.2PL0 Copyright (c) Steve Scherf et al.
# Submitted via: dBpowerAMP V12.0
#
DISCID=af0cf60d
DTITLE=Guy Davis - Juba Dance
DYEAR=2013
DGENRE=Blues
TTITLE0=Lost Again
TTITLE1=My Eyes Keep Me In Trouble
TTITLE2=Love Looks Good on You
TTITLE3=Some Cold Rainy Day
TTITLE4=See That My Grave is Kept Clean
TTITLE5=Dance Juba Dance
TTITLE6=Black Coffee
TTITLE7=Did You See My Baby
TTITLE8=Satisfied
TTITLE9=That's No Way to Get Along
TTITLE10=Saturday Blues
TTITLE11=Prodigal Son
TTITLE12=Statesboro Blues
EXTD=
EXTT0=
EXTT1=
EXTT2=
EXTT3=
EXTT4=
EXTT5=
EXTT6=
EXTT7=
EXTT8=
EXTT9=
EXTT10=
EXTT11=
EXTT12=
PLAYORDER=
